<svg width="35" height="34" viewBox="0 0 35 34" fill="none" xmlns="http://www.w3.org/2000/svg">
<g id="Frame" clip-path="url(#clip0_5399_1450)">
<path id="Vector" d="M17.0732 34H17.142C26.5735 34 34.2151 26.4254 34.2151 17C34.2151 7.5746 26.608 0 17.142 0H17.0732C7.6072 0 0 7.5746 0 17C0 26.4254 7.64162 34 17.0732 34Z" fill="#00FFFF"/>
<path id="Vector_2" d="M17.0897 32.2561H17.1241C26.6934 32.2561 33.2335 26.0182 33.2335 17.6211C33.2335 9.22395 26.0738 1.06665 17.1241 1.06665H17.0897C8.14006 1.06665 0.980347 8.84689 0.980347 17.6211C0.980347 26.3953 7.52047 32.2561 17.0897 32.2561Z" fill="#00EDED"/>
<path id="Vector_3" d="M17.7973 30.5292C28.3303 30.5292 32.2544 24.8396 32.2544 18.1904C32.2544 9.0735 24.8537 2.11588 17.1088 2.11588C9.36397 2.11588 1.96326 9.0735 1.96326 18.1904C1.96326 24.8396 5.88734 30.5292 16.4204 30.5292H17.7973Z" fill="#00DCDC"/>
<path id="Vector_4" d="M19.7586 28.7845H14.4577C5.47359 28.7845 2.89197 23.9861 2.89197 18.9135C2.89197 10.9619 9.6386 3.18167 17.0737 3.18167H17.1425C24.5776 3.18167 31.3243 10.9619 31.3243 18.9135C31.3243 23.9861 28.7427 28.7845 19.7586 28.7845Z" fill="#00CACA"/>
<path id="Vector_5" d="M10.6697 27.1732C12.8727 27.1732 14.9036 27.0361 17.0722 27.0361H17.141C19.3096 27.0361 21.3405 27.1732 23.5434 27.1732C28.0183 27.1732 30.3934 23.5402 30.3934 19.0502C30.3934 12.5381 23.7156 4.24377 17.141 4.24377H17.0722C10.4976 4.24377 3.81982 12.5381 3.81982 19.0502C3.81982 23.5402 6.19493 27.1732 10.6697 27.1732Z" fill="#00B8B8"/>
<path id="Vector_6" d="M10.0863 26.0409C11.9796 26.0409 14.0792 25.3212 17.0739 25.3212H17.1428C20.1375 25.3212 22.2372 26.0409 24.1304 26.0409C27.7447 26.0409 29.4657 23.0933 29.4657 19.7002C29.4657 16.3071 27.5038 12.6054 25.404 10.2062C23.442 7.94414 20.7226 5.30502 17.1428 5.30502H17.0739C13.4941 5.30502 10.7748 7.94414 8.81274 10.2062C6.71302 12.6054 4.75098 16.17 4.75098 19.7002C4.75098 23.2304 6.47206 26.0409 10.0863 26.0409Z" fill="#00A6A6"/>
<path id="Vector_7" d="M9.43106 25.0138C11.5996 25.0138 13.8714 23.5057 17.0727 23.5057H17.1415C20.3427 23.5057 22.6145 25.0138 24.7832 25.0138C27.1238 25.0138 28.5695 22.7517 28.5695 20.044C28.5695 16.8223 26.4353 13.1548 24.3012 10.7557C22.0638 8.25367 19.9641 6.33432 17.1415 6.33432H17.0727C14.25 6.33432 12.1504 8.25367 9.91295 10.7557C7.7788 13.1548 5.64465 16.8223 5.64465 20.044C5.64465 22.7517 7.09037 25.0138 9.43106 25.0138Z" fill="#009494"/>
<path id="Vector_8" d="M9.45002 24.1529C11.4465 24.1529 13.6839 21.8223 16.9883 21.8223H17.2293C20.5338 21.8223 22.7712 24.1529 24.7676 24.1529C26.5232 24.1529 27.6936 22.405 27.6936 20.4856C27.6936 17.915 25.6282 14.4533 23.976 12.4312C22.1516 10.1691 19.8454 7.42712 17.2293 7.42712H16.9883C14.3723 7.42712 12.0661 10.1691 10.2417 12.4312C8.58944 14.4533 6.52417 17.915 6.52417 20.4856C6.52417 22.405 7.69451 24.1529 9.45002 24.1529Z" fill="#008383"/>
<path id="Vector_9" d="M16.969 20.0999C15.1791 20.0999 13.6301 21.1624 12.1844 22.0877C10.8763 22.9103 10.2224 23.2874 9.49948 23.2874C8.29474 23.2874 7.36536 22.2591 7.36536 20.7853C7.36536 18.3176 10.0503 14.7188 11.5648 12.7652C12.9761 10.9487 14.7316 8.4809 17.0035 8.4809H17.21C19.4818 8.4809 21.2373 10.9487 22.6486 12.7652C24.1631 14.7188 26.848 18.3176 26.848 20.7853C26.848 22.2591 25.9187 23.2874 24.7139 23.2874C23.991 23.2874 23.337 22.9103 22.029 22.0877C20.5833 21.1624 19.0343 20.0999 17.2444 20.0999H16.969Z" fill="#007171"/>
<path id="Vector_10" d="M17.1086 9.55008C15.5596 9.55008 14.8023 10.4755 13.4599 12.2577C11.8076 14.4855 10.1554 16.919 9.0883 18.5642C8.33104 19.7638 8.15894 20.3464 8.15894 20.8263C8.15894 21.8202 8.84739 22.4371 9.74237 22.4371C10.5341 22.4371 11.1192 21.9573 12.2551 21.0319C13.8041 19.7295 15.2842 18.3585 17.1086 18.3585C18.9329 18.3585 20.4131 19.7295 21.9621 21.0319C23.0979 21.9573 23.6831 22.4371 24.4748 22.4371C25.3698 22.4371 26.0583 21.8202 26.0583 20.8263C26.0583 20.3464 25.8861 19.7638 25.1288 18.5642C24.0617 16.919 22.4096 14.4855 20.7573 12.2577C19.4148 10.4755 18.6576 9.55008 17.1086 9.55008Z" fill="black"/>
</g>
<defs>
<clipPath id="clip0_5399_1450">
<rect width="35" height="34" fill="white"/>
</clipPath>
</defs>
</svg>
